<?xml version="1.0" encoding="utf-8"?>
<svg version="1.1" id="Capa_1" xmlns="http://www.w3.org/2000/svg" xmlns:xlink="http://www.w3.org/1999/xlink" x="0px" y="0px"
	 viewBox="0 0 2400 2000" style="enable-background:new 0 0 2400 2000;" xml:space="preserve">
<style type="text/css">
	.st0{fill:#FAF7FB;}
</style>
<g>
	<path class="st0" d="M450,700 l-350,300 l350,300 l40,-45 l-290,-255 l290,-255 Z" />
	
	<g transform="translate(552, 0)">
		<g>
			<path class="st0" d="M647.8,0C543.9,0,459.6,84.5,459.6,188.5c0,103.7,84.3,188.2,188.2,188.2s188.4-84.5,188.4-188.2
				C836.2,84.7,751.6,0.2,647.8,0z M647.8,320.8c-73,0-132.4-59.4-132.4-132.4c0-73.1,59.4-132.5,132.4-132.5
				c73,0,132.5,59.4,132.5,132.5C780.4,261.4,720.8,320.8,647.8,320.8z M763.1,644.6h382l22.8-35.6V464.7h-59.3v121.4H718.2
				l-66.3,148.7h-7.4l-66.6-148.7H187.3V464.7h-59.3V609l22.8,35.6h382L0,1831.9c6.5,9.8,8.8,13.4,14.9,22.8l0.6,1.1h145.6
				l26.2-58.5H80l484.8-1081l7.8,1.7l49.7,109.9h51.1l49.7-110l8-1.5l484.7,1081h-107.3l26.2,58.5h145.6l0.8-1.1
				c6-9.4,8.3-12.9,14.8-22.8L763.1,644.6z M663.7,1032.9h-28.9l-426.4,944.6l14.5,22.5H1073l14.5-22.5L663.7,1032.9z M289.2,1944.9
				l359.1-809.8l363.4,809.8H289.2z M825.6,1800.7H474.7l-24.6,56h400.6L825.6,1800.7z"/>
		</g>
	</g>

	<path class="st0" d="M1950,700 l350,300 l-350,300 l-40,-45 l290,-255 l-290,-255 Z" />
</g>
</svg>
